<svg width="180" height="180" viewBox="0 0 180 180" fill="none" xmlns="http://www.w3.org/2000/svg">
  <!-- Background Circle -->
  <circle cx="90" cy="90" r="90" fill="#2D3748"/>
  
  <!-- Inner White Circle -->
  <circle cx="90" cy="90" r="70" fill="#FFFFFF"/>
  
  <!-- Robot Head -->
  <rect x="55" y="45" width="70" height="60" rx="12" fill="#4A5568"/>
  
  <!-- Robot Eyes -->
  <circle cx="72" cy="65" r="8" fill="#00D9FF"/>
  <circle cx="108" cy="65" r="8" fill="#00D9FF"/>
  
  <!-- Robot Eye Highlights -->
  <circle cx="74" cy="63" r="3" fill="#FFFFFF"/>
  <circle cx="110" cy="63" r="3" fill="#FFFFFF"/>
  
  <!-- Robot Mouth/Screen -->
  <rect x="70" y="85" width="40" height="12" rx="6" fill="#00D9FF"/>
  
  <!-- Robot Screen Details -->
  <rect x="75" y="88" width="6" height="6" rx="1" fill="#FFFFFF"/>
  <rect x="85" y="88" width="6" height="6" rx="1" fill="#FFFFFF"/>
  <rect x="95" y="88" width="6" height="6" rx="1" fill="#FFFFFF"/>
  
  <!-- Robot Antennas -->
  <circle cx="70" cy="30" r="5" fill="#4A5568"/>
  <circle cx="110" cy="30" r="5" fill="#4A5568"/>
  <line x1="70" y1="35" x2="70" y2="45" stroke="#4A5568" stroke-width="4"/>
  <line x1="110" y1="35" x2="110" y2="45" stroke="#4A5568" stroke-width="4"/>
  
  <!-- BIT Text -->
  <text x="90" y="140" font-family="Arial, sans-serif" font-size="28" font-weight="bold" text-anchor="middle" fill="#4A5568">BIT</text>
  
  <!-- Online Status Dot -->
  <circle cx="140" cy="40" r="12" fill="#48BB78"/>
  <text x="140" y="46" font-family="Arial, sans-serif" font-size="8" font-weight="bold" text-anchor="middle" fill="#FFFFFF">●</text>
</svg>
